<svg xmlns="http://www.w3.org/2000/svg" viewBox="0 0 438.26 359.51"><defs><style>.cls-1{fill:#208cba;}.cls-2{fill:#2abff0;}.cls-3{fill:#186ab4;}.cls-4{fill:#283271;}</style></defs><title>ButterflyVector</title><g id="ButterflyLines"><path class="cls-1" d="M277.46,550.69c-3.95-3.38-.06-8.31-3.93-20.51-2.12-6.67-5.82-13.21-7.86-16.81-4-7-7.43-11.5-5.89-13.53,1.22-1.61,4.1.31,7.64-2,1.64-1.06,2.62-2.53,4.58-5.46,1.75-2.61,1.72-3.21,2.84-4.8,2.21-3.14,4.48-3.9,7.2-5.89,4.35-3.19,3.23-4.68,8.51-10.48,3.36-3.68,6.32-5.84,11.79-9.82a73.35,73.35,0,0,1,10-6.33c2.89-1.47,2.68-1.08,4.14-2,6.14-3.7,5-7.58,9.82-10,2.94-1.5,7.26-2.05,10-2.4a23.63,23.63,0,0,0,3.28-.66,25.23,25.23,0,0,0,3.49-1.31c4.74-2.24,20.62-21,23.35-19.64,1.64.79-.83,9.09-1.53,11.35A99.21,99.21,0,0,1,354.5,454c-14.2,21.38-23,45.91-34.7,68.75-4.54,8.82-8.83,17.2-18.34,23.35C294.4,550.68,282.69,555.17,277.46,550.69Z" transform="translate(-78.51 -241.19)"/><path class="cls-2" d="M306.05,550.69c8.49.36,14.52-10,20.95-18.33,5.18-6.72,2.84-2.05,35.35-30.56,4.84-4.24,19.89-17.49,38.63-35.13,0,0,23.73-22.33,36.89-36.45l3.71-3.93c7.64-8.08,9.32-9.81,11.78-11.78a55.81,55.81,0,0,1,6.77-4.59c8.4-5.18,14.69-13.32,20.29-21.17,19.36-27.07,30.06-42,25.76-47.14-2.05-2.42-7.84-1.25-19.43,1.1-6.47,1.31-15.14,3.14-24.88,8.73-9,5.18-7.2,6.84-16.36,11.78-5.94,3.2-7.06,2.69-21.17,8.95-8.25,3.66-11.2,5.31-12.23,5.89a107.87,107.87,0,0,0-14,9.6A137.73,137.73,0,0,0,382,402.07a101,101,0,0,0-15.06,19.2c-5.08,8.66-3.73,9.92-10.48,24.88a236.06,236.06,0,0,1-11.78,22.7c-6.24,10.57-6.66,9.29-14.41,21.82-8.17,13.22-7.72,14.66-15.27,26-2.9,4.33-5.66,8.75-8.52,13.1-6.68,10.18-9.28,13.91-7.85,17C299.8,549.32,303.3,550.58,306.05,550.69Z" transform="translate(-78.51 -241.19)"/><path class="cls-3" d="M275.06,561.77c-.31,4.28-5.08,7.11-8.35,9-5.94,3.42-9.1,3.2-22.92,6.87-7.92,2.11-7.74,2.41-11.13,3-6.15,1-10.48.57-18.66-.16-24.44-2.2-23.59-2-26.35-2.46-11.32-2-17-3-21.6-5.56-8.64-4.86-10.89-10.47-21.12-13.59a28.14,28.14,0,0,1-6.71-2.45c-1.42-.79-5.64-3.35-10.48-11.3-3.88-6.38-3-7.82-7.36-16.2s-6.2-8.92-5.73-10.64c2.08-7.57,40.07-4.69,68.75.65,30.82,5.74,21.77,8.9,60.89,19.32,0,0,18.13,4.83,28.48,17.67A8.74,8.74,0,0,1,275.06,561.77Z" transform="translate(-78.51 -241.19)"/><path class="cls-1" d="M133.31,406.6c-4.47-.47-9.69-1-15.55,1.31-2.9,1.11-5.44,2.09-7.37,4.58-2.42,3.13-1.88,6.05-2.12,15.71-.1,3.8,0-4-.82,14.9-.4,9.19-.6,13.79-.66,16.53-.22,11.64-.33,17.46.82,23.08,1.28,6.24,2.35,6.4,3.27,12.77,1.06,7.28-.06,8.95,1.48,14.24.83,2.85,2.56,8.81,7.36,11.78,4.22,2.61,8.78,1.65,13.59,1a152.32,152.32,0,0,1,34.21.17c9.46,1.05,6.9,2.2,24.88,5.4,13.52,2.41,15.58,1.87,21.6,4.42,8,3.39,14.83,8.76,18.66,11.78,6.57,5.18,8.42,7.86,13.92,9.66,2.18.71,7.58,2.48,13.26.49,6-2.12,11.17-8.06,12.11-13.42,2.16-12.34-18-20.54-44.85-46a329.34,329.34,0,0,1-35.19-39.93c-7-9.23-29.45-39.43-46.32-45.67A58.23,58.23,0,0,0,133.31,406.6Z" transform="translate(-78.51 -241.19)"/><path class="cls-2" d="M99,275.49l9.15-21.94,19.67,4.91,48.66,59.26,42.23,63.83c2.69,2.68,5.78,6.7,5.57,11.46a11.7,11.7,0,0,1-1.29,4.68c-1.75,3.87-1.69,11.1,6.52,25.91L257.38,486l18.33,55.51-6.54,2.06a213.94,213.94,0,0,1-17.85-13.1A217.74,217.74,0,0,1,210.25,486l-31.44-33L134.28,404.8,99,369.11,83.88,330.16l4.91-20.63,5.89-26.84Z" transform="translate(-78.51 -241.19)"/><path class="cls-4" d="M113.48,389.68c2.73,2.49,5.67,4.75,8.46,7.18,1.34,1.16,2.54,2.49,3.8,3.74a29.54,29.54,0,0,1-5.19,1.52c-2.38.26-4.56.33-4.59,3.54,0,4.08.79,5.12,4.56,5.35A11.44,11.44,0,0,0,124,411c6.42-1.69,11.18,1.59,15.43,5.49,4.85,4.45,9.19,9.45,13.84,14.11a54.57,54.57,0,0,0,4.93,4,64,64,0,0,1,5.44,4.35c4.17,4.19,8.17,8.55,12.26,12.81,2.39,2.49,4.83,4.95,7.26,7.4,1.42,1.44,2.84,2.89,4.36,4.22.39.34,1.5.54,1.66.33a2.8,2.8,0,0,0,.52-2,4.46,4.46,0,0,0-1.18-1.83c-4.6-5.06-9.33-10-13.8-15.17-4.91-5.69-9.56-11.6-14.37-17.37a26.63,26.63,0,0,0-3.2-3.08c-4-3.45-8.15-6.84-12.17-10.33a3.75,3.75,0,0,1-1.25-2.14c-.44-3.4-2.57-5.7-4.71-8.13-2.37-2.7-4.41-5.69-6.59-8.55-1.8-2.36-3.34-5-5.41-7.05-3.2-3.23-6.94-5.93-10.12-9.17-5.69-5.82-11.26-11.78-16.64-17.89a56.4,56.4,0,0,1-6.09-8.92c-.48-.81-.74-2.76.22-3.4s2.5.48,3.4,1.17c1.15.88,1.82,2.35,2.89,3.36,3.86,3.69,7.79,7.32,11.73,10.92q6.9,6.31,13.88,12.53c2.45,2.18,5.18,4.08,7.5,6.39,3.48,3.48,6.68,7.23,10.06,10.82,5.87,6.25,11.87,12.39,17.67,18.71,7.3,7.94,14.47,16,21.68,24,2.5,2.77,4.88,5.64,7.5,8.29,1.63,1.64,4.54,1.73,5.31,4.63.21.79,1.91,2.38,2.89,1.76,1.15-.71.3-3-.35-4-1.23-1.87-3.09-3.31-4.63-5q-8-8.81-15.93-17.66a61,61,0,0,1-3.93-5c-2.06-2.87-3.73-6.07-6.1-8.65-4.77-5.23-10-10-14.85-15.2-6.85-7.37-13.47-15-20.2-22.45-.49-.55-1.13-1-1.66-1.49-4.43-4.45-8.91-8.84-13.25-13.38-1.58-1.66-2.68-3.78-4.24-5.47-3.82-4.1-7.88-8-11.67-12.1a110.29,110.29,0,0,1-8.35-10c-1.25-1.73-3.11-4-2.45-6.11a1.11,1.11,0,0,1,.94-.64,4,4,0,0,1,2.79,1.12c4.51,3.84,9.06,7.65,13.35,11.72,3.84,3.65,7.25,7.75,11.07,11.41,4.35,4.17,8.94,8.07,13.44,12.08,1.57,1.4,3.23,2.69,4.74,4.15q3.61,3.48,7.06,7.13c5.14,5.45,10.35,10.82,15.3,16.44,5.18,5.87,10.06,12,15.12,18,3.28,3.87,6.69,7.63,9.94,11.52,3.12,3.73,6,7.65,9.18,11.32,1.9,2.21,4.25,4,6.24,6.16,3.06,3.29,6.09,6.64,8.95,10.11,6.54,7.92,13.37,15.63,18.1,24.87a2.61,2.61,0,0,0,1.31,1.29,3.72,3.72,0,0,0,2.38-.08c.29-.14.33-1.39.1-2a22.24,22.24,0,0,0-2.27-4.89c-2.32-3.3-4.83-6.47-7.35-9.63-1.43-1.79-3.11-3.38-4.55-5.17-3.22-4-6.22-8.15-9.57-12-4.28-4.95-9-9.53-13.2-14.54-4.57-5.46-8.7-11.29-13.14-16.86-5.11-6.42-10.38-12.71-15.53-19.1-3.54-4.38-6.75-9.06-10.54-13.2-6.07-6.62-12.51-12.9-18.77-19.35-3.61-3.72-7.32-7.35-10.71-11.27-6.93-8-13.56-16.31-20.54-24.29-3-3.4-6.57-6.26-9.75-9.5a3.33,3.33,0,0,1-.71-2.73c.11-.47,1.57-.9,2.37-.82a4.06,4.06,0,0,1,2.1,1.34c1.91,2,3.4,4.6,5.66,6,7.4,4.46,12.92,11,19.17,16.68,7.73,7.07,13.8,15.73,22.86,21.64,7.72,5,13.87,12.16,18.8,20.14a5.34,5.34,0,0,0,1.59,1.55c6.93,4.49,10.6,11.69,15.14,18.17,1.94,2.78,3.94,5.53,6,8.27q6.14,8.35,12.33,16.7a14.91,14.91,0,0,0,8.75,6.13,19,19,0,0,0-2.78-6.51c-1.79-2.57-4-4.82-5.93-7.32-2.55-3.36-5-6.82-7.4-10.27-1.34-1.9-2.38-4-3.87-5.8-5.7-6.78-11.55-13.43-17.29-20.18-1.5-1.77-2.69-3.8-4.18-5.58-5.67-6.79-11.41-13.52-17.1-20.28-2.1-2.5-3.94-5.25-6.27-7.51-4.63-4.5-9.67-8.58-14.25-13.12-5.1-5.06-9.89-10.44-14.8-15.68-2-2.08-3.83-4.21-5.83-6.23-3-3-6-5.77-8.94-8.79a3.47,3.47,0,0,1-.77-2.82,1.64,1.64,0,0,1,1.77-1,16.37,16.37,0,0,1,4.74,2.27c3.28,2.59,5.5,6.33,8.46,9.28,5.7,5.7,11.55,11.24,17.39,16.8,1.74,1.65,3.79,3,5.45,4.7,1.81,1.86,3.17,4.17,5.06,5.91.75.7,2.41.42,3.65.58a11.73,11.73,0,0,0-1.29-3.34c-2-2.43-4.37-4.51-6.22-7-4-5.35-7.51-11-11.52-16.3-4.65-6.17-9.64-12.1-14.41-18.19a4.85,4.85,0,0,1-1-2.65c0-.83,0-2.17.78-2.54s1.85.46,2.41,1c1.09,1.13,1.82,2.62,2.89,3.79,2.77,3,5.69,5.94,8.45,9,1.57,1.72,2.85,3.7,4.44,5.4,5,5.42,10.15,10.77,15.27,16.12,9.09,9.51,15.46,21.28,25.2,30.27,1.93,1.79,1.35,4.5-.52,6.41a2.42,2.42,0,0,0,2.15,4.3,4.45,4.45,0,0,1,4.47,1.61c3.44,3.74,6.87,7.49,10.4,11.15,1.64,1.71,3.09,3.78,5.22,4.83a.78.78,0,0,0,1.12-.43c.81-1.95-.29-3.84-1.08-5.44a77.29,77.29,0,0,0-14.64-20.72c-2.55-2.56-4.68-5.68-4.95-9.75-.31-4.81-3.87-8.15-6.45-11.8-3.6-5.09-7.8-9.75-11.64-14.68-3.52-4.52-6.69-9.33-10.38-13.72-3.86-4.59-8.11-8.86-12.24-13.22-3.42-3.61-7-7.08-10.33-10.75-.79-.88-2-2.33-1.46-3.47s2.61-1.32,3.68-1a24.61,24.61,0,0,1,13,8.16c6,7.17,11.74,14.52,17.49,21.87,6.1,7.83,12.09,15.76,18.11,23.66,1.76,2.32,3.5,4.67,5.15,7.06,2.53,3.67,4.88,7.46,7.49,11.07,3.73,5.13,7.76,10,11.4,15.24,1.93,2.76,3.26,5.92,5,8.84,3.06,5.22,6.74,10.15,9.18,15.64s6.81,8.87,11.14,12.44a2.85,2.85,0,0,0,2.49.56,2.75,2.75,0,0,0,.92-2.44,60.79,60.79,0,0,0-3-9.62c-3.27-7.25-6.73-14.42-10.31-21.52-3.1-6.15-5.59-12.94-10-18-4-4.65-7.63-9.49-11.29-14.38-4.07-5.42-9-10.24-12.84-15.78a169.68,169.68,0,0,0-13.27-17.28c-6.95-7.67-12.74-16.38-19.38-24.35-9.35-11.21-19.06-22-32.63-28.56a14.07,14.07,0,0,0-19,7.53c-3.15,8.26-3.41,17-3.28,25.4a57.74,57.74,0,0,1-6.42,26.82,59.46,59.46,0,0,0-6.28,28c.11,4.59,1.9,9.14,2.07,13.74.22,6,3.49,10.49,6.46,15a217.57,217.57,0,0,0,15.19,20C105.57,382.87,109.64,386.19,113.48,389.68Z" transform="translate(-78.51 -241.19)"/><path class="cls-4" d="M312.51,543.33c-7.23-5.31-15.42-5.66-23.77-4.47-2.21.31-4.19,2.09-6.3,3.17-1,.51-2,1-3,1.42-.87-3.53-1.75-7.06-2.6-10.6-.23-.91-.42-1.83-.59-2.75a45.45,45.45,0,0,0-1-5.23c-1.64-5.3-6.34-9.43-5.94-15.57,0-.7-1.18-1.42-1.69-2.22-1.57-2.47-3.07-5-4.6-7.46,1.49-.34,2.36.14,3.09,0,2.7-.61,5.92-.76,7.86-2.38s2.46-4.63,3.19-7.16c.32-1.09-.2-3.43-.74-3.56-1.6-.39-4-.62-5,.28-2.53,2.27-4.49,5.19-6.65,7.87-.58.72-1.05,1.53-1.74,2.57-2.59-3-1.94-6.16-2-9.3a41.92,41.92,0,0,0-1.28-9c-.63-2.41-1.95-4.63-2.92-6.95-.7-1.65-1.23-3.38-2-5-2.23-4.46-4.87-8.73-6.79-13.31-3.41-8.11-6.4-16.39-9.6-24.58a21.25,21.25,0,0,0-1.18-1.9c-2.09-3.91-4.32-7.76-6.2-11.78-2.55-5.44-4.8-11-7.25-16.52-.33-.74-1-1.78-1.63-1.87a24.94,24.94,0,0,0-7.3-.29c-1,.16-2.46,2.27-2.31,3.29a40,40,0,0,0,2.46,8.71c.72,1.84,2.15,3.39,3,5.17,2.42,4.81,4.92,9.59,7,14.53s3.82,10.27,5.78,15.39a35.34,35.34,0,0,0,2.09,4.23c.81,1.49,1.81,2.87,2.54,4.39,3.68,7.66,7.43,15.3,10.89,23.07,2.29,5.12,4.22,10.41,6.14,15.69,2.27,6.25,4.33,12.57,6.53,18.84.24.69.88,1.22,1.16,1.9,1.68,4.11,3.76,8.12,4.82,12.39.92,3.71,1.49,7.13,5.12,9.4,2.27,1.42,1.8,2.8-.7,4.22a21.37,21.37,0,0,0-4.88,3.44c-1.89,2-3.31,4.37-5.13,6.41-3.38,3.8-2.33,10.3,2.43,12,4,1.45,4.47,5.49,7,8.16a13.49,13.49,0,0,1-5.5-1.21c-7.68-3.76-13.78.72-19.86,4-3.17,1.73-5.45,5-8.42,7.22a7.45,7.45,0,0,1-4.67,1c-3.38-.22-6.75-1.32-10.1-1.23-16.55.41-32.53-2.47-48.19-7.6a7.5,7.5,0,0,0-2.18-.45c-6.48-.12-10.82-4.28-15.37-8.06-3.55-2.93-7.26-5.38-13.36-4.26,2.23,3,3.67,5.75,5.85,7.65,3.57,3.11,7.28,6.56,11.57,8.22,6.19,2.4,13,3.31,19.47,4.89,1.44.35,2.84.86,4.27,1.26,3.53,1,7,2.16,10.61,2.93,2.58.55,5.33.34,7.91.91,8.69,1.9,17.27,2.27,25.79-.9,1-.35,2.26.19,3.41.32-.37,1.21-.4,2.75-1.18,3.59-2.2,2.38-3.91,8.76-2.71,11.82.25.64.81,1.52,1.35,1.62,4.72.84,9.69,2,14-.81s8-6.47,13.1-8.07a3.81,3.81,0,0,0,1.3-.9c2.91-2.7,6.09-5.18,8.63-8.19s6.08-5.54,5.32-10.36c-.11-.67,1.41-2.34,2-2.25,3.23.49,6.68.81,9.5,2.26a10.49,10.49,0,0,0,9.13.44,43.12,43.12,0,0,1,8-2c5.65-.85,6.31-2,3.28-6.55,3.9-3.95,7.53-7.52,11-11.21C315.39,549.3,315.06,545.2,312.51,543.33Zm-10.83,19.78c-.05-.12-.05-.2,0,0Z" transform="translate(-78.51 -241.19)"/><path class="cls-4" d="M516.25,326.45a4.55,4.55,0,0,0-2-2.88c-.62-.29-1.91.82-2.87,1.36-1.64.92-3.19,2-4.88,2.81-4.18,1.93-8.49,3.61-12.62,5.64-2.9,1.43-5.59,3.3-8.4,4.93a26.81,26.81,0,0,1-4.68,2.53c-5.39,1.84-9,3.19-15.52,5.39a1.58,1.58,0,0,0-.27.16c-5.77,3.65-11.38,7.58-17.34,10.88-6.6,3.67-13.56,6.67-20.26,10.16-3.54,1.84-6.7,4.47-11,4.55-.28,0-.56.29-.84.45-4.49,2.72-9,5.42-13.46,8.17a17.64,17.64,0,0,0-1.95,1.64c-2.76,2.33-5.48,4.7-8.29,7s-6.18,4.43-8.88,7c-3.27,3.15-5.88,7-9.21,10.08-4.93,4.55-7.84,10.41-11.06,16-2.28,4-3.78,8.4-5.64,12.62a8.9,8.9,0,0,1-.72,1,43.18,43.18,0,0,0-6.78,15.84,28.79,28.79,0,0,1-2.08,6.22,34,34,0,0,1-2.77,4.29,11.83,11.83,0,0,1-1.5,2.41c-5.52,5-7.88,11.88-11.25,18.19-1.92,3.61-4.16,7.06-6.33,10.53-2.28,3.67-5.08,7.09-6.82,11-1.25,2.82-2.79,4-5.61,3.92-.29,1.52-.26,3.22-1,4.51-2.25,4.11-4.79,8.07-7.21,12.08-.33.55-1,1.2-.88,1.65.35,1.42.65,3.22,1.65,4,.68.5,3.09-.11,3.71-1,4.65-6.44,9.06-13.06,13.51-19.64,2.42-3.57,4.81-7.16,7.12-10.81,2-3.18,3.86-6.45,5.8-9.68.8-1.32,1.66-2.61,2.47-3.92.6-1,1.22-1.93,1.77-2.92,2-3.57,3.87-7.16,5.86-10.71,2.59-4.64,5.39-9.17,7.8-13.9,2.05-4,3.58-8.32,5.51-12.41,2.16-4.58,5-8.9,6.66-13.63a57.15,57.15,0,0,1,9.53-16.28c1.52-1.92,3.06-3.83,4.66-5.69,5.23-6.1,9.73-13,17.45-16.47.52-.24.83-.93,1.29-1.36,2.95-2.77,5.58-6.06,8.95-8.15,4.63-2.86,9.82-4.81,14.77-7.14a2.45,2.45,0,0,1,.94-.16c5.74-.22,9.54-4.35,13.88-7.2,2.91-1.91,5.57-2.79,8.32-.72,2,1.52,2.58.62,3.45-1.17a11.3,11.3,0,0,1,3.08-3.79q5.82-4.68,11.91-9c.78-.54,2.21-.4,3.26-.2.46.09,1.18,1.39,1,1.67a6.25,6.25,0,0,1-2,1.73c-.61.39-1.51.43-2,.92-2.4,2.49-4.78,5-7,7.66-1.61,1.91-2.76,4.25-4.51,6a58.11,58.11,0,0,0-11.58,17.18,20.92,20.92,0,0,1-2.47,4c-4.86,6.3-9.73,12.6-14.71,18.81-1.15,1.44-2.9,2.4-4.1,3.82-3,3.54-5.81,7.22-8.71,10.84-1.72,2.16-3.48,4.29-5.19,6.46-3.67,4.67-7.29,9.39-11,14-1.92,2.4-7.13,5.62-4.41,8.15,2.3,2.13,5.34-.81,7-3.55a54.07,54.07,0,0,1,6.38-7.78c4.24-4.75,8.69-9.32,12.82-14.16,2-2.31,3.21-5.22,5.12-7.59,4-5,8.4-9.58,12.28-14.62,3-3.92,5.1-8.56,8.25-12.33,4.91-5.89,9.52-11.87,13-18.77,1-2,2.88-3.63,4.47-5.32,2.29-2.42,4.73-4.72,7-7.13,1.45-1.51,2.76-3.13,4.15-4.7,2.31-2.6,4.52-5.3,7-7.77a54.76,54.76,0,0,1,5.16-4.15,3.87,3.87,0,0,1-.45,3.06c-1.89,2.78-4,5.43-5.85,8.23-2.46,3.68-4.9,7.39-7.17,11.19-3.63,6.11-7.17,12.28-10.56,18.53-.51.92-1,3,.09,3.63s2.76-1,3.51-2c4.2-5.59,8.19-11.35,12.29-17,3.11-4.29,6.18-8.61,9.44-12.8,3-3.81,6.05-7.54,9.32-11.09.67-.74,2.39-.51,3.62-.73a17.17,17.17,0,0,1-.48,3.68c-.57,1.65-1.51,3.17-2.24,4.77a32,32,0,0,1-1.49,3.5c-2.31,3.73-4.71,7.4-7.13,11.06-1.56,2.36-3.14,4.72-4.84,7-4.64,6.13-9.3,12.23-14.05,18.28a23,23,0,0,1-3.71,3.45c-4.25,3.44-6.18,9.27-11.76,11.39a2.32,2.32,0,0,0-.93,2c.17.81,1.15,2.18,1.5,2.09,2.28-.53,4.84-.92,6.62-2.27,2.87-2.18,5.1-5.2,7.81-7.63,2.51-2.24,5.64-3.86,7.87-6.33,3.66-4.06,6.78-8.61,10.21-12.89,1.31-1.64,3-3,4.22-4.66,4.16-5.48,8-11.13,10.06-17.81a5.46,5.46,0,0,1,1.22-1.86c5.5-6.21,9.48-13.43,13.26-20.71A22.8,22.8,0,0,0,516.25,326.45Z" transform="translate(-78.51 -241.19)"/><path class="cls-4" d="M313.22,508.43h.08a.28.28,0,0,0,0-.09Z" transform="translate(-78.51 -241.19)"/><path class="cls-4" d="M440.66,423.8c-5.25,1.62-8.79,5.63-12.16,9.73-3.67,4.46-7.22,9-11,13.36a95.24,95.24,0,0,1-7.29,7.05c-3.88,3.56-7.76,7.13-11.78,10.53-2.22,1.88-4.87,3.26-7.06,5.16-4.88,4.25-9.64,8.64-14.36,13.05-4.55,4.25-9,8.61-13.49,12.92-1.81,1.74-3.65,3.46-5.43,5.24-2,2-3.75,4.33-6,6.06-4.41,3.45-9.11,6.53-13.6,9.88-1.93,1.44-3.59,3.25-5.47,4.79-3.1,2.54-6.36,4.9-9.35,7.56-1,.85-2.06,2.79-1.7,3.57.54,1.15,2.35,1.7,3.67,2.54,2.06-.78,4-1,5.3-2.09,7.32-5.76,14.51-11.67,21.7-17.59a60.44,60.44,0,0,0,5.56-5.17c3.5-3.74,6.78-7.7,10.35-11.37,2.53-2.6,5.42-4.84,8.08-7.32,2-1.85,3.68-4.1,5.86-5.68,5.33-3.87,10.75-7.55,15.11-12.63,1.74-2,4-4.16,6.4-5a17.62,17.62,0,0,0,8-5.44c1.74-2,3.43-4.07,5.25-6,8.79-9.35,17.66-18.63,26.38-28,.91-1,2.22-2.75,1.55-4S441.94,423.41,440.66,423.8Z" transform="translate(-78.51 -241.19)"/><path class="cls-4" d="M112.11,499.16c3.82-2.49,5.3-7.75,3.72-13.5-.74-2.67-1.48-5.35-2.47-7.94-1.35-3.51-3-6.91-4.36-10.43a4.67,4.67,0,0,1,.25-3c.65-1.83,2.24-3.57,2.23-5.34-.06-8.79,1.85-17.64-.77-26.39a4.61,4.61,0,0,1,1.49-4c1-.65,2.93-.17,4.32.24.93.27,1.59,1.38,2.47,2,3,2,5.73,4.93,9,5.74,4.49,1.11,6.88,4.76,10.61,6.66s7,4.45,10.66,6.5c.7.41,2,0,2.92-.35a2.36,2.36,0,0,0-.05-2c-3.35-3.5-6.58-7.19-10.32-10.24-3.47-2.82-7.52-4.92-11.3-7.36-2.83-1.82-5.42-4.5-8.51-5.34-4.8-1.29-6.2-4.6-7.41-8.58a15.6,15.6,0,0,0-2.13-4.21c-1.1-1.58-2.59-1.75-4.51-1.11-2.92,1-4.44,2.76-4.51,5.79s-.32,6.18-.09,9.24a5.78,5.78,0,0,0,1.94,3.8c2,1.5,1.85,2.6.5,4.43-2.23,3.05-4.92,6.07-6,9.54a17.87,17.87,0,0,0,1,12.71A45.68,45.68,0,0,1,104,467.48c.38,2.54-.72,5.24-.78,7.89a21.67,21.67,0,0,0,.39,2.57c1.52,7.37,2.17,12.35,3.94,19.65C108.2,500.28,109.8,500.66,112.11,499.16Z" transform="translate(-78.51 -241.19)"/><path class="cls-4" d="M407.46,390.36c-1.17.35-2.13,1.46-3.31,1.75-3.76.91-5.52,3.63-6.87,6.9a17.82,17.82,0,0,1-2,3.84c-3.5,4.77-7.24,9.37-10.61,14.24-4,5.81-7.91,11.71-11.51,17.79a135.51,135.51,0,0,0-6.33,12.92c-1.87,4.13-3.19,8.54-5.36,12.49-3.29,5.95-7.08,11.61-10.7,17.38q-3.12,5-6.38,9.88c-.39.6-1.17.93-1.62,1.5a14.09,14.09,0,0,0-1.67,2.61c-1.05,2.2-2,4.44-3,6.65-.47,1.06-1,2.11-1.6,3.38-1,2,0,3.39,1.38,2.26.62-.5,1.71-.82,1.87-1.42a5.51,5.51,0,0,1,3.74-3.93c.77-.31,1.21-1.62,1.64-2.55s.65-2.25,1.18-3.28c2.63-5.12,5.33-10.21,8-15.28a15.41,15.41,0,0,1,1.59-2c3.57-4.6,7.22-9.14,10.68-13.82,4-5.43,4.93-12.27,7.94-18.24a102.57,102.57,0,0,1,6.12-11.19c2.77-4.14,6.08-7.9,9.07-11.9,2.57-3.44,5.1-6.92,7.5-10.48,2.25-3.32,4-7.06,6.59-10.06,1.46-1.69,3.26-2.81,3.35-5.34,0-.54,1.28-.95,1.77-1.57s1.45-1.44,1.09-2.16S408.21,390.13,407.46,390.36Z" transform="translate(-78.51 -241.19)"/><path class="cls-4" d="M406,406.85c-2.72,1.85-3.18,4.28-3.73,7a8.1,8.1,0,0,1-1.19,2.57c-4.53,7.21-11.46,12.59-15.4,20.34-2.08,4.09-11.19,10.62-5.84,12.82,2.32,1,4-3,5.65-4.84,2.85-3.24,5.35-6.79,8.07-10.16,1.13-1.4,2.57-2.55,3.61-4,3.9-5.5,7.65-11.11,11.58-16.58.69-1,2-1.49,3.07-2.16s2.22-1,3-1.78q6.38-6.82,12.56-13.83,5.79-6.51,11.41-13.18c2.17-2.59,4.23-5.29,6.14-8.07.38-.54-.13-1.7-.23-2.57-.68.08-1.57-.09-2,.28-2.05,1.77-3.9,3.75-5.94,5.52-2.43,2.11-5.1,3.95-7.44,6.15-1.77,1.66-2.79,4.15-5.55,4.68-.25,0-.21,1-.51,1.43-2,2.56-4.05,5.08-6.11,7.6a.79.79,0,0,1-.58.22c-2.57-.2-4.07,1.58-6,2.78C408,402.57,407.86,405.58,406,406.85Z" transform="translate(-78.51 -241.19)"/><path class="cls-4" d="M195.34,531.65c6.6,2.87,13.54,2.8,20.51,2.49.08,0,.16-.13.5-.45-.39-2.77-2.6-3.13-4.64-3.6-2.58-.6-5.2-1-7.78-1.64-4.42-1-8.81-2.14-13.21-3.19-2.77-.66-5.57-1.18-8.31-1.94-3-.83-5.94-2.1-9-2.74-2.9-.6-6-.34-8.87-1-9.55-2-19.07-.82-28.59,0a15,15,0,0,0-4.54,1.41c-.57.25-1.33,1.19-1.22,1.62a2.63,2.63,0,0,0,1.57,1.68,29.38,29.38,0,0,0,5.06.44c11.35.31,22.71.58,34.07.91a6.63,6.63,0,0,1,3.07.74c5.06,3.08,10.74,3.09,16.35,3.66A17.41,17.41,0,0,1,195.34,531.65Z" transform="translate(-78.51 -241.19)"/><path class="cls-4" d="M138.93,551.56a26.89,26.89,0,0,1-5.12-4.73c-3.15-4.37-6-9-8.85-13.52a4.45,4.45,0,0,1-.56-3,5.76,5.76,0,0,0-1.51-5.83,7.64,7.64,0,0,1-1.46-3.46c-.51-2.17-.5-4.51-1.26-6.58-2.13-5.77-4.32-8.26-8-7.95-1.37.76-3.71,1.34-3.89,2.33a9.57,9.57,0,0,0,1.15,5.59c2,4,4.52,7.62,6.46,11.59,2.66,5.43,6.53,10.53,5.64,17.17a1.89,1.89,0,0,0,.43,1.18c3.69,5.06,6.35,11,13.13,13.17,2.2.7,4.21,1,5.46-.74S140.7,553,138.93,551.56Z" transform="translate(-78.51 -241.19)"/><path class="cls-4" d="M300.23,464.24a6.36,6.36,0,0,0,4.66.11,14,14,0,0,0,4.57-3.71,6.78,6.78,0,0,1,7.19-2.13c1.07.31,1.87,3.08,2,4.79.24,3.05-.35,6.16-.18,9.22.29,5,.9,10,1.39,15,.17,1.75.95,1.49,1.67.35,1.37-2.17,3.16-4.16,4.09-6.5,2.24-5.68,2.16-11.67,1.25-17.61a11.1,11.1,0,0,0-1.86-4.63c-2-2.82-4.29-5.45-6.54-8.1a2.67,2.67,0,0,0-1.85-1c-2.58.42-5.43.54-7.61,1.78-3.35,1.9-6.27,4.58-9.3,7S296.77,462.68,300.23,464.24Z" transform="translate(-78.51 -241.19)"/><path class="cls-4" d="M327.52,448a11,11,0,0,1,3.57-2,38.11,38.11,0,0,1,5.26-.79,37.65,37.65,0,0,1,.34,5.38c-.24,3.49-.93,7-1,10.44,0,1,1.32,2.39,2.34,2.77.61.22,1.94-1.09,2.71-1.92a21.73,21.73,0,0,0,2.52-3.5,6.25,6.25,0,0,0,1.18-2.76c.13-4.35.06-8.7.06-13.06.56-5.35.17-5.78-5.26-5.73-2.44,0-4.9.59-7.3.39-4.51-.37-7.06,2.65-9.59,5.37-1.88,2-.22,4.35,1.1,6S326.21,449.08,327.52,448Z" transform="translate(-78.51 -241.19)"/><path class="cls-4" d="M194.64,550.09c5.41-.8,6.88-.61,12.3-1.42.88-.13,2.1-.34,4-.58a52.54,52.54,0,0,1,7.28-.59c4.2.08,9.22-.91,12.4,1,4.73,2.86,10,2.17,14.8,6.64.38.35,3.12.4,3.58-.78.38-1-1.05-1.88-1.81-2.56s-2.35-.94-2.93-1.81c-3.14-4.68-8.53-5.76-13-8.24-1-.53-2.61,0-3.9.27-2.58.5-5.17,1.78-7.68,1.62-12.58-.8-24.7,1.86-36.85,4.4-.84.17-2.38.77-2.27,1.72s1.78,1.22,2.64,1.19A104.1,104.1,0,0,0,194.64,550.09Z" transform="translate(-78.51 -241.19)"/><path class="cls-4" d="M288,500.84c.75,3.64,1.37,7.3,1.93,11,.76,4.92,1.44,9.85,2.12,14.78.28,2-.52,5.1,2.24,5.21s2.52-3,2.68-5c.89-11.37,1.32-22.66-3.84-33.41-2.16-4.49-5.05-7.12-9.84-7.35.15,3.72.56,7.29,3.1,10.38A10.47,10.47,0,0,1,288,500.84Z" transform="translate(-78.51 -241.19)"/><path class="cls-4" d="M283.3,486a.38.38,0,0,0,0-.1l-.09.09Z" transform="translate(-78.51 -241.19)"/><path class="cls-4" d="M313.22,508.43l.09-.09-.08,0Z" transform="translate(-78.51 -241.19)"/><path class="cls-4" d="M312.47,487.9c-.61-2.88-2-5.61-2.42-8.5-.57-4.16-2.19-7.42-5.63-9.87-1.46-1-2.56-.85-2.91.71a15.41,15.41,0,0,0-.49,6.23c1.46,7.12,3.29,14.18,5,21.26a1,1,0,0,0,.09.3c1.88,2.84,1.29,5.87.82,9a12.85,12.85,0,0,0,.21,3.17c1.57,4.31,4.85,2.35,6.11-1.79a99,99,0,0,0,.64-10.44A56.87,56.87,0,0,0,312.47,487.9Z" transform="translate(-78.51 -241.19)"/><path class="cls-4" d="M138.81,475.07a5.2,5.2,0,0,0,1.43.68c5.43,1.16,10.36,5.95,15.39,5.89.27,0,.56.28.84.43,4.82,2.54,9.7,5,14.46,7.64,3.95,2.19,7.68,4.8,11.69,6.87,3.38,1.74,7.16,2.74,9.35,6.25.18.29.8.28,1.15.51a8.13,8.13,0,0,1,2.53,1.82c1.59,2.38,4,2.23,6.29,2.24.59,0,1.71-.67,1.69-1a3.13,3.13,0,0,0-1-2,37.27,37.27,0,0,0-4.09-2.84c-1.42-.9-2.85-2.31-4.36-2.42-4.48-.34-6.6-4.24-10.05-6.1-4-2.13-7.56-4.93-11.48-7.14s-8-4.11-12.13-6c-2.35-1.09-4.81-1.95-7.23-2.89a51.44,51.44,0,0,1-6.41-2.46c-2.82-1.54-7.45-3.68-8.72-.61C137.76,474.78,138.66,475,138.81,475.07Z" transform="translate(-78.51 -241.19)"/><path class="cls-4" d="M239.85,517.67c-4.27-5.18-8.43-10.45-12.66-15.66-3.87-4.75-7.64-9.6-11.77-14.13-2-2.21-4.74-3.77-8.06-6.32-.46,1.83-1.11,2.91-.81,3.52a21.25,21.25,0,0,0,3,4.45q15,17,30.13,33.92a4.8,4.8,0,0,0,3,1.25c.47,0,1.55-1.17,1.47-1.67a6.25,6.25,0,0,0-1.46-2.9C241.9,519.18,240.63,518.63,239.85,517.67Z" transform="translate(-78.51 -241.19)"/><path class="cls-4" d="M283.22,485.91c.29-4.41,4.93-5.24,6.93-8.28,1.59-2.4,3.71-4.44,5.46-6.74.25-.33-.07-1.48-.49-1.87-2.23-2.08-6.15-1.82-8.39.44s-4.31,4.36-6.5,6.52c-2.47,2.44-2.27,5.54-1.41,8.32C279.11,485.21,281.66,485.41,283.22,485.91Z" transform="translate(-78.51 -241.19)"/><path class="cls-4" d="M283.29,485.93l-.07,0a.43.43,0,0,1,0,.11Z" transform="translate(-78.51 -241.19)"/><path class="cls-4" d="M199.62,489.66c-5.59-7.93-14.68-12.41-21.07-19.58a13,13,0,0,0-3.14-2c-1-.6-1.89,0-.8,1.07,7.74,7.43,15.84,14.47,23.56,21.91C199.44,492.3,200.6,491.07,199.62,489.66Z" transform="translate(-78.51 -241.19)"/><path class="cls-4" d="M227.2,484.08c2.35,5.56,6.6,9.83,10.45,15.31C238.47,496.21,230.54,485,227.2,484.08Z" transform="translate(-78.51 -241.19)"/><path class="cls-4" d="M140.44,457.83a12.9,12.9,0,0,1,7.83,4.92,1.76,1.76,0,0,0,1.43.56,4.16,4.16,0,0,0,2.25-1.16c.21-.28-.41-1.69-1-2-2.67-1.44-5.43-2.73-8.23-3.92-.84-.35-2.16-.93-2.89-.25-.52.48-.07.94,0,1.11S140.21,457.79,140.44,457.83Z" transform="translate(-78.51 -241.19)"/><path class="cls-4" d="M146.42,501.21a13.94,13.94,0,0,0-12.14-.27C138.28,502.44,142.31,502.93,146.42,501.21Z" transform="translate(-78.51 -241.19)"/><path class="cls-4" d="M152.77,504.45c-1.24,0-1.65,1.46-.21,1.7,3.11.5,6.23.88,9.36,1.16.44,0,1.36-.89,1.35-1.36a2,2,0,0,0-1.33-1.44C158.89,504.38,155.83,504.47,152.77,504.45Z" transform="translate(-78.51 -241.19)"/><path class="cls-4" d="M163.59,554.37c3.17,2,8.87,1.54,11.21-1.18C170.87,551.41,165.06,552.09,163.59,554.37Z" transform="translate(-78.51 -241.19)"/><path class="cls-4" d="M216.09,471.41a2.3,2.3,0,0,0-.2-2c-1.65-1.56-3.47-2.94-5.64-4.72-.09,2.82,2.32,6.59,4.15,7C214.94,471.83,216,471.68,216.09,471.41Z" transform="translate(-78.51 -241.19)"/><path class="cls-4" d="M127.88,452.34c-.5,3.59,7.52,4.7,8.6,1.7C137.71,450.62,128.45,448.25,127.88,452.34Z" transform="translate(-78.51 -241.19)"/><path class="cls-4" d="M123.45,450.13c.47.16,1.8-.29,1.93-1a2.79,2.79,0,0,0-2.47-2.86,2.2,2.2,0,0,0-2.35,2C120.63,449.43,122.4,449.77,123.45,450.13Z" transform="translate(-78.51 -241.19)"/></g></svg>